<svg id="svg" version="1.1" xmlns="http://www.w3.org/2000/svg" xmlns:xlink="http://www.w3.org/1999/xlink" width="400" height="394.11764705882354" viewBox="0, 0, 400,394.11764705882354"><g id="svgg"><path id="path0" d="M197.633 54.359 C 197.308 54.467,196.953 54.664,196.844 54.796 C 196.473 55.249,191.795 57.988,191.394 57.988 C 191.173 57.988,190.934 58.122,190.861 58.286 C 190.684 58.687,181.951 63.905,181.456 63.905 C 181.241 63.905,181.065 64.079,181.065 64.292 C 181.065 64.505,180.621 64.791,180.079 64.927 C 179.536 65.063,179.093 65.321,179.093 65.499 C 179.093 65.678,178.706 65.947,178.232 66.098 C 177.759 66.248,176.667 66.881,175.806 67.505 C 174.945 68.129,174.001 68.639,173.708 68.639 C 173.415 68.639,173.176 68.805,173.176 69.007 C 173.176 69.209,172.788 69.498,172.315 69.648 C 171.842 69.798,170.750 70.431,169.889 71.055 C 169.028 71.679,168.084 72.189,167.791 72.189 C 167.498 72.189,167.258 72.355,167.258 72.557 C 167.258 72.760,166.887 73.043,166.432 73.187 C 165.978 73.331,164.843 73.965,163.910 74.595 C 162.977 75.224,162.017 75.740,161.777 75.740 C 161.537 75.740,161.341 75.905,161.341 76.108 C 161.341 76.310,160.968 76.594,160.512 76.739 C 160.055 76.884,159.035 77.446,158.243 77.988 C 157.452 78.531,156.450 79.137,156.016 79.335 C 155.582 79.534,154.694 80.046,154.043 80.473 C 153.393 80.901,152.505 81.430,152.071 81.650 C 150.961 82.212,149.830 82.953,149.200 83.531 C 148.904 83.802,148.423 84.024,148.131 84.024 C 147.839 84.024,147.541 84.157,147.469 84.320 C 147.396 84.482,146.494 85.055,145.464 85.593 C 144.433 86.131,143.590 86.696,143.590 86.849 C 143.590 87.001,143.190 87.253,142.702 87.408 C 142.214 87.563,141.105 88.148,140.237 88.708 C 138.010 90.147,137.168 90.657,136.489 90.981 C 136.164 91.137,135.187 91.717,134.320 92.271 C 132.098 93.688,131.279 94.185,130.375 94.663 C 129.941 94.893,129.053 95.435,128.402 95.868 C 127.751 96.302,126.908 96.764,126.529 96.895 C 126.149 97.026,125.838 97.278,125.838 97.455 C 125.838 97.632,125.439 97.902,124.951 98.054 C 124.463 98.207,123.974 98.440,123.866 98.574 C 123.757 98.707,122.825 99.257,121.795 99.795 C 120.764 100.332,119.921 100.909,119.921 101.077 C 119.921 101.244,119.727 101.381,119.490 101.381 C 119.253 101.381,114.009 104.413,107.836 108.119 C 101.664 111.825,96.222 115.069,95.743 115.328 C 95.264 115.587,94.144 116.268,93.255 116.841 C 92.366 117.414,91.035 118.214,90.297 118.619 C 89.559 119.024,88.227 119.823,87.338 120.394 C 86.449 120.966,85.118 121.765,84.379 122.169 C 83.641 122.574,82.327 123.357,81.460 123.908 C 80.592 124.460,79.260 125.250,78.501 125.665 C 77.742 126.080,76.721 126.764,76.233 127.184 L 75.345 127.948 75.345 152.271 C 75.345 165.649,75.455 176.705,75.590 176.839 C 75.725 176.974,76.476 176.648,77.260 176.116 C 78.043 175.584,78.894 175.148,79.151 175.148 C 79.408 175.148,79.678 175.005,79.750 174.831 C 79.931 174.396,84.613 171.598,85.160 171.598 C 85.403 171.598,85.602 171.416,85.602 171.193 C 85.602 170.971,86.001 170.613,86.489 170.399 C 86.977 170.184,87.909 169.658,88.560 169.231 C 89.211 168.803,90.099 168.291,90.533 168.093 C 90.966 167.894,91.995 167.270,92.818 166.706 C 93.642 166.142,94.485 165.680,94.692 165.680 C 94.899 165.680,95.069 165.520,95.069 165.325 C 95.069 165.129,95.557 164.776,96.154 164.541 C 97.356 164.068,98.503 163.373,99.321 162.623 C 99.617 162.352,100.098 162.130,100.390 162.130 C 100.682 162.130,100.980 161.986,101.052 161.809 C 101.319 161.157,115.322 153.024,115.837 153.222 C 116.282 153.393,116.372 161.407,116.377 201.270 C 116.380 227.583,116.526 249.339,116.702 249.615 C 116.947 250.002,117.333 249.907,118.372 249.202 C 119.116 248.698,119.990 248.159,120.316 248.005 C 120.988 247.687,120.459 248.002,133.244 240.292 C 138.510 237.115,143.135 234.339,143.521 234.122 C 143.908 233.905,147.185 231.957,150.804 229.793 L 157.384 225.859 157.489 176.876 C 157.591 129.060,157.612 127.873,158.358 127.049 C 159.158 126.165,160.404 125.387,162.229 124.632 C 162.825 124.385,163.314 124.044,163.314 123.873 C 163.314 123.703,163.624 123.456,164.004 123.325 C 164.384 123.194,165.227 122.732,165.878 122.298 C 166.529 121.865,167.416 121.328,167.850 121.105 C 168.284 120.881,169.172 120.349,169.822 119.921 C 170.473 119.494,171.361 118.961,171.795 118.738 C 172.229 118.514,173.116 117.982,173.767 117.554 C 174.418 117.127,175.306 116.594,175.740 116.371 C 176.174 116.147,177.061 115.615,177.712 115.187 C 178.363 114.760,179.250 114.227,179.684 114.004 C 180.118 113.781,181.006 113.248,181.657 112.821 C 182.308 112.393,183.195 111.860,183.629 111.637 C 184.063 111.414,184.951 110.881,185.602 110.454 C 186.252 110.026,187.140 109.494,187.574 109.270 C 188.008 109.047,188.895 108.514,189.546 108.087 C 190.197 107.659,191.085 107.130,191.519 106.910 C 192.669 106.328,193.855 105.563,194.091 105.252 C 194.204 105.102,194.736 104.784,195.274 104.544 C 196.959 103.793,198.122 103.050,198.469 102.501 C 198.878 101.856,198.922 55.206,198.515 54.596 C 198.355 54.357,197.959 54.250,197.633 54.359 M282.840 126.652 C 282.840 148.216,282.776 150.740,282.217 150.954 C 281.522 151.221,278.925 149.960,275.148 147.521 C 274.497 147.101,273.524 146.566,272.986 146.332 C 272.448 146.099,271.916 145.781,271.803 145.626 C 271.690 145.472,270.754 144.906,269.724 144.370 C 268.693 143.833,267.850 143.260,267.850 143.097 C 267.850 142.934,267.506 142.801,267.084 142.801 C 266.663 142.801,266.202 142.612,266.060 142.382 C 265.918 142.152,265.419 141.797,264.952 141.594 C 264.079 141.215,263.736 141.012,260.828 139.152 C 259.895 138.555,259.054 138.067,258.959 138.067 C 258.864 138.067,257.053 137.038,254.934 135.780 C 252.815 134.522,250.816 133.366,250.492 133.211 C 250.167 133.057,249.369 132.580,248.718 132.151 C 248.067 131.723,247.179 131.190,246.746 130.966 C 246.312 130.743,245.424 130.218,244.773 129.799 C 244.122 129.380,242.791 128.628,241.815 128.128 C 240.838 127.629,239.947 127.097,239.834 126.948 C 239.721 126.799,239.189 126.485,238.651 126.252 C 238.113 126.018,237.140 125.476,236.489 125.048 C 235.838 124.619,235.039 124.144,234.714 123.992 C 234.389 123.839,232.084 122.486,229.593 120.984 C 227.101 119.482,224.705 118.094,224.267 117.898 C 223.829 117.703,222.939 117.193,222.288 116.765 C 221.637 116.338,220.750 115.805,220.316 115.582 C 219.882 115.358,218.994 114.825,218.343 114.397 C 217.692 113.969,216.893 113.495,216.568 113.344 C 216.243 113.193,214.864 112.392,213.504 111.564 C 212.144 110.736,210.897 110.059,210.734 110.059 C 210.570 110.059,209.492 109.438,208.339 108.679 C 207.186 107.919,206.173 107.298,206.087 107.298 C 206.001 107.298,204.771 106.588,203.353 105.720 C 201.935 104.852,200.601 104.142,200.388 104.142 C 200.138 104.142,200.001 112.746,200.002 128.304 L 200.005 152.465 201.285 153.204 C 201.988 153.610,203.274 154.311,204.142 154.761 C 205.010 155.211,205.809 155.677,205.917 155.797 C 206.286 156.206,207.689 157.012,208.777 157.441 C 209.374 157.676,209.862 158.028,209.862 158.224 C 209.862 158.420,210.116 158.580,210.425 158.580 C 210.735 158.580,211.227 158.802,211.517 159.073 C 211.808 159.344,212.886 160.006,213.912 160.544 C 214.939 161.082,215.779 161.659,215.779 161.826 C 215.779 161.993,215.976 162.130,216.217 162.130 C 216.458 162.130,218.100 163.000,219.866 164.062 C 225.027 167.168,225.794 167.621,226.627 168.048 C 227.061 168.271,227.949 168.803,228.600 169.231 C 229.250 169.658,230.223 170.199,230.761 170.433 C 231.299 170.667,231.832 170.984,231.945 171.137 C 232.058 171.291,232.594 171.629,233.136 171.888 C 233.679 172.148,235.010 172.895,236.095 173.550 C 237.179 174.205,238.422 174.923,238.856 175.147 C 239.290 175.371,240.178 175.904,240.828 176.331 C 241.479 176.759,242.367 177.291,242.801 177.515 C 243.235 177.738,244.122 178.271,244.773 178.698 C 245.424 179.126,246.397 179.667,246.935 179.900 C 247.473 180.134,248.005 180.448,248.118 180.597 C 248.440 181.022,249.797 181.824,250.986 182.293 C 251.583 182.528,252.071 182.880,252.071 183.076 C 252.071 183.272,252.391 183.432,252.781 183.432 C 253.172 183.432,253.689 183.630,253.931 183.872 C 254.423 184.364,255.760 185.165,257.101 185.772 C 257.589 185.993,257.988 186.356,257.988 186.578 C 257.988 186.800,258.308 186.982,258.698 186.982 C 259.089 186.982,259.606 187.180,259.848 187.422 C 260.272 187.846,261.243 188.451,262.919 189.338 C 263.353 189.568,264.241 190.105,264.892 190.533 C 265.542 190.960,266.449 191.476,266.906 191.679 C 267.363 191.882,268.783 192.719,270.062 193.540 C 271.340 194.360,273.185 195.466,274.162 195.998 C 277.013 197.552,277.838 198.026,279.093 198.833 C 279.744 199.251,280.665 199.765,281.140 199.975 C 282.828 200.721,282.840 200.908,282.840 226.942 L 282.840 251.963 285.306 253.225 C 286.662 253.919,289.103 255.202,290.730 256.075 C 292.357 256.949,294.842 258.278,296.252 259.029 C 299.407 260.710,300.012 261.037,300.888 261.541 C 301.267 261.759,301.755 262.009,301.972 262.095 C 302.189 262.181,302.633 262.359,302.959 262.491 C 303.284 262.623,304.083 263.082,304.734 263.511 C 305.385 263.940,306.183 264.395,306.509 264.521 C 306.834 264.648,307.367 264.906,307.692 265.095 C 308.018 265.284,309.704 266.174,311.440 267.072 C 313.176 267.970,316.256 269.577,318.285 270.643 C 320.314 271.709,322.133 272.482,322.328 272.362 C 322.536 272.234,322.682 242.256,322.682 200.045 L 322.682 127.948 321.795 127.130 C 321.307 126.680,319.487 125.456,317.751 124.410 C 316.016 123.364,313.531 121.783,312.229 120.896 C 310.927 120.009,309.596 119.159,309.270 119.006 C 308.945 118.854,308.146 118.378,307.495 117.949 C 306.844 117.520,306.052 117.044,305.735 116.893 C 305.418 116.741,304.076 115.896,302.753 115.014 C 299.890 113.107,299.798 113.048,295.266 110.238 C 289.103 106.416,285.023 103.821,284.615 103.462 C 282.760 101.833,282.840 100.779,282.840 126.652 M240.236 227.909 C 240.236 228.072,239.331 228.738,238.224 229.389 C 235.823 230.801,235.408 231.056,233.243 232.454 C 232.325 233.046,231.393 233.531,231.172 233.531 C 230.950 233.531,230.769 233.664,230.769 233.826 C 230.769 233.989,229.859 234.655,228.748 235.306 C 227.637 235.957,226.262 236.797,225.692 237.174 C 225.121 237.550,224.300 238.038,223.866 238.258 C 222.756 238.819,221.625 239.560,220.994 240.138 C 220.699 240.409,220.218 240.631,219.926 240.631 C 219.634 240.631,219.336 240.775,219.264 240.950 C 219.191 241.125,217.535 242.223,215.582 243.390 C 213.629 244.556,211.943 245.628,211.834 245.771 C 211.726 245.915,211.168 246.281,210.595 246.586 C 210.021 246.891,207.891 248.171,205.861 249.430 C 203.831 250.690,201.815 251.933,201.381 252.192 C 200.947 252.451,200.503 252.764,200.394 252.887 C 200.286 253.010,198.156 254.329,195.661 255.819 C 193.166 257.308,191.036 258.640,190.927 258.779 C 190.819 258.918,190.464 259.154,190.138 259.303 C 189.813 259.453,189.066 259.883,188.479 260.261 C 186.083 261.800,177.804 266.904,176.808 267.456 C 176.221 267.781,175.651 268.148,175.542 268.270 C 175.434 268.393,173.772 269.458,171.849 270.637 C 169.926 271.816,167.885 273.089,167.312 273.466 C 166.740 273.842,165.917 274.338,165.483 274.567 C 163.807 275.454,162.836 276.060,162.413 276.483 C 161.456 277.439,159.104 276.765,155.621 274.536 C 154.970 274.120,154.083 273.617,153.649 273.418 C 153.215 273.220,152.186 272.596,151.363 272.032 C 150.540 271.467,149.608 271.006,149.292 271.006 C 148.976 271.006,148.718 270.840,148.718 270.638 C 148.718 270.436,148.344 270.151,147.887 270.006 C 147.429 269.861,145.010 268.518,142.509 267.021 C 140.008 265.524,137.878 264.300,137.774 264.300 C 137.670 264.300,136.115 263.412,134.320 262.327 C 132.524 261.243,130.857 260.355,130.616 260.355 C 130.375 260.355,130.178 260.178,130.178 259.961 C 130.178 259.744,129.924 259.566,129.614 259.566 C 129.304 259.566,128.816 259.342,128.529 259.068 C 128.242 258.795,127.564 258.357,127.022 258.096 C 126.479 257.834,125.148 257.085,124.063 256.430 C 122.978 255.776,121.651 255.049,121.113 254.814 C 120.575 254.580,120.042 254.266,119.928 254.117 C 119.594 253.679,116.455 252.071,115.932 252.071 C 115.478 252.071,107.321 255.991,106.903 256.410 C 106.795 256.518,104.043 257.959,100.789 259.610 C 85.294 267.472,81.840 269.245,81.657 269.428 C 81.548 269.536,79.684 270.501,77.515 271.571 C 75.345 272.640,73.492 273.577,73.397 273.651 C 73.083 273.894,75.305 275.337,78.501 276.964 C 79.477 277.462,80.511 278.099,80.797 278.382 C 81.084 278.664,81.578 278.895,81.895 278.895 C 82.211 278.895,82.573 279.162,82.698 279.487 C 82.822 279.813,83.250 280.079,83.648 280.079 C 84.046 280.079,84.470 280.238,84.590 280.433 C 84.710 280.627,85.564 281.178,86.487 281.658 C 87.410 282.138,88.929 283.043,89.862 283.671 C 90.795 284.299,91.620 284.813,91.696 284.813 C 91.771 284.813,94.026 286.109,96.706 287.694 C 99.385 289.278,101.844 290.700,102.170 290.854 C 102.495 291.007,103.294 291.483,103.945 291.912 C 104.596 292.340,105.483 292.874,105.917 293.097 C 106.351 293.321,107.594 294.040,108.679 294.695 C 109.763 295.349,111.095 296.097,111.637 296.356 C 112.179 296.616,112.712 296.934,112.821 297.063 C 112.929 297.192,113.817 297.728,114.793 298.254 C 115.769 298.780,116.657 299.303,116.765 299.416 C 116.874 299.529,117.406 299.842,117.949 300.111 C 118.491 300.380,119.467 300.951,120.118 301.381 C 120.769 301.810,121.568 302.286,121.893 302.438 C 122.219 302.591,124.196 303.747,126.286 305.007 C 128.377 306.267,130.285 307.298,130.527 307.298 C 130.769 307.298,130.966 307.472,130.966 307.685 C 130.966 307.898,131.410 308.183,131.953 308.319 C 132.495 308.455,132.939 308.683,132.939 308.825 C 132.939 308.968,133.826 309.505,134.911 310.020 C 135.996 310.535,136.884 311.110,136.884 311.297 C 136.884 311.484,137.081 311.637,137.322 311.637 C 137.563 311.637,139.205 312.507,140.971 313.569 C 146.132 316.675,146.899 317.127,147.732 317.555 C 148.166 317.778,149.053 318.312,149.704 318.742 C 150.355 319.172,151.376 319.720,151.972 319.959 C 152.569 320.197,153.057 320.553,153.057 320.749 C 153.057 320.944,153.254 321.105,153.496 321.105 C 153.737 321.105,155.379 321.974,157.144 323.037 C 162.306 326.143,163.073 326.595,163.905 327.023 C 164.339 327.246,165.227 327.778,165.878 328.205 C 166.529 328.633,167.433 329.148,167.888 329.350 C 168.343 329.552,169.852 330.409,171.241 331.255 C 172.631 332.101,174.034 332.916,174.359 333.067 C 174.684 333.218,175.483 333.692,176.134 334.121 C 176.785 334.549,177.673 335.082,178.107 335.306 C 178.540 335.529,179.428 336.062,180.079 336.489 C 180.730 336.917,181.703 337.458,182.240 337.691 C 182.778 337.925,183.311 338.238,183.424 338.388 C 183.714 338.771,185.035 339.573,186.185 340.065 C 186.723 340.295,187.256 340.605,187.369 340.755 C 187.482 340.904,188.431 341.470,189.479 342.012 C 192.947 343.807,193.294 344.024,193.294 344.400 C 193.294 344.605,193.627 344.773,194.035 344.773 C 194.442 344.773,194.996 345.039,195.266 345.365 C 195.536 345.690,195.932 345.957,196.145 345.957 C 196.358 345.957,197.322 346.489,198.286 347.140 C 200.465 348.610,201.605 348.627,203.690 347.220 C 204.590 346.613,205.592 345.990,205.917 345.835 C 206.243 345.680,207.041 345.198,207.692 344.764 C 208.343 344.330,209.186 343.868,209.566 343.736 C 209.946 343.605,210.256 343.362,210.256 343.197 C 210.256 343.032,210.789 342.676,211.440 342.406 C 212.091 342.137,212.623 341.781,212.623 341.616 C 212.623 341.450,212.934 341.208,213.314 341.076 C 213.693 340.945,214.536 340.478,215.187 340.039 C 215.838 339.600,216.681 339.134,217.061 339.003 C 217.441 338.871,217.751 338.619,217.751 338.442 C 217.751 338.265,218.151 337.996,218.639 337.843 C 219.127 337.691,219.615 337.442,219.724 337.291 C 219.832 337.139,221.221 336.231,222.809 335.273 C 224.398 334.315,226.173 333.222,226.754 332.845 C 227.335 332.467,228.077 332.036,228.402 331.887 C 228.728 331.738,229.083 331.499,229.191 331.357 C 229.300 331.214,230.688 330.314,232.277 329.356 C 233.865 328.397,235.640 327.301,236.222 326.918 C 236.803 326.536,237.589 326.116,237.968 325.985 C 238.348 325.854,238.659 325.601,238.659 325.424 C 238.659 325.247,239.045 324.980,239.516 324.830 C 239.988 324.681,240.564 324.407,240.798 324.222 C 241.032 324.037,241.720 323.482,242.328 322.988 L 243.434 322.091 241.539 321.105 C 240.497 320.562,239.586 319.985,239.513 319.822 C 239.441 319.660,239.143 319.527,238.851 319.527 C 238.559 319.527,238.086 319.305,237.799 319.034 C 237.513 318.762,236.479 318.130,235.503 317.629 C 232.961 316.325,229.423 314.311,229.191 314.039 C 229.083 313.911,228.195 313.397,227.219 312.897 C 226.243 312.398,224.911 311.644,224.260 311.222 C 223.609 310.801,222.589 310.261,221.992 310.022 C 221.395 309.783,220.907 309.427,220.907 309.232 C 220.907 309.036,220.708 308.876,220.464 308.876 C 220.220 308.876,218.756 308.111,217.210 307.175 C 215.664 306.240,214.132 305.349,213.807 305.195 C 213.481 305.041,212.150 304.305,210.848 303.559 C 209.546 302.814,208.126 302.016,207.692 301.786 C 207.258 301.557,206.371 301.019,205.720 300.592 C 205.069 300.164,204.137 299.639,203.649 299.424 C 201.958 298.680,202.963 297.342,206.706 295.354 C 208.116 294.604,209.892 293.615,210.651 293.154 C 211.410 292.694,212.387 292.135,212.821 291.912 C 213.254 291.689,214.142 291.157,214.793 290.728 C 215.444 290.300,216.243 289.827,216.568 289.676 C 216.893 289.526,218.847 288.406,220.909 287.188 C 222.971 285.969,224.923 284.845,225.248 284.691 C 225.573 284.536,226.371 284.062,227.022 283.637 C 227.673 283.213,228.738 282.602,229.389 282.279 C 230.039 281.957,231.460 281.155,232.544 280.498 C 233.629 279.841,234.872 279.120,235.306 278.896 C 235.740 278.672,236.627 278.147,237.278 277.728 C 238.518 276.931,239.287 276.488,242.209 274.890 C 243.185 274.356,244.694 273.472,245.562 272.927 C 246.430 272.381,247.406 271.807,247.732 271.652 C 248.057 271.497,248.679 271.152,249.112 270.887 C 249.546 270.621,251.143 269.696,252.660 268.831 C 254.178 267.966,255.775 267.044,256.211 266.782 C 256.646 266.520,257.357 266.118,257.791 265.889 C 258.225 265.659,259.112 265.122,259.763 264.694 C 260.414 264.267,261.329 263.748,261.796 263.541 C 262.263 263.334,262.762 262.977,262.904 262.746 C 263.046 262.516,263.507 262.327,263.929 262.327 C 264.350 262.327,264.694 262.167,264.694 261.972 C 264.694 261.776,265.182 261.423,265.779 261.188 C 266.376 260.953,267.130 260.585,267.456 260.370 C 269.538 258.993,274.138 256.410,274.508 256.410 C 274.751 256.410,274.951 256.270,274.951 256.098 C 274.951 255.834,276.719 254.792,280.106 253.062 C 281.387 252.408,280.985 251.836,278.008 250.076 C 276.435 249.147,275.089 248.239,275.016 248.059 C 274.944 247.879,274.701 247.732,274.476 247.732 C 273.953 247.732,269.274 244.918,269.099 244.498 C 269.027 244.324,268.784 244.181,268.559 244.181 C 268.123 244.181,263.447 241.452,263.116 241.004 C 263.008 240.858,262.520 240.613,262.032 240.461 C 261.543 240.308,261.144 240.018,261.144 239.816 C 261.144 239.613,260.890 239.448,260.580 239.448 C 260.270 239.448,259.782 239.216,259.496 238.933 C 259.209 238.649,258.708 238.292,258.383 238.139 C 258.057 237.986,257.258 237.511,256.607 237.082 C 255.957 236.654,255.069 236.141,254.635 235.943 C 254.201 235.744,253.225 235.156,252.465 234.636 C 251.706 234.115,250.819 233.563,250.493 233.408 C 250.168 233.254,249.369 232.777,248.718 232.349 C 248.067 231.920,247.179 231.387,246.746 231.164 C 246.312 230.940,245.424 230.410,244.773 229.986 C 241.932 228.132,240.237 227.356,240.236 227.909 " stroke="none" fill="#fbfbfb" fill-rule="evenodd"></path><path id="path1" d="M109.130 22.287 C 108.659 22.758,107.396 22.880,102.974 22.880 C 98.393 22.880,97.371 22.984,97.184 23.471 C 97.012 23.919,96.290 24.063,94.225 24.063 C 92.161 24.063,91.438 24.208,91.267 24.655 C 91.109 25.066,90.467 25.247,89.158 25.247 C 87.966 25.247,87.096 25.464,86.785 25.838 C 86.507 26.173,85.647 26.430,84.807 26.430 C 83.848 26.430,83.238 26.640,83.092 27.022 C 82.962 27.360,82.374 27.613,81.717 27.613 C 81.086 27.613,80.358 27.869,80.098 28.182 C 79.838 28.495,79.062 28.806,78.373 28.873 C 77.684 28.939,77.172 29.172,77.234 29.389 C 77.297 29.606,76.802 29.872,76.134 29.980 C 75.466 30.089,74.934 30.355,74.951 30.572 C 74.968 30.789,74.398 31.061,73.684 31.176 C 72.955 31.294,72.430 31.597,72.485 31.867 C 72.545 32.156,72.131 32.347,71.443 32.347 C 70.792 32.347,70.204 32.602,70.074 32.939 C 69.949 33.264,69.398 33.531,68.849 33.531 C 68.224 33.531,67.850 33.752,67.850 34.122 C 67.850 34.448,67.508 34.714,67.089 34.714 C 66.671 34.714,66.062 34.980,65.737 35.306 C 65.411 35.631,64.955 35.897,64.722 35.897 C 64.490 35.897,64.300 36.164,64.300 36.489 C 64.300 36.884,63.905 37.081,63.116 37.081 C 62.327 37.081,61.933 37.278,61.933 37.673 C 61.933 37.998,61.667 38.264,61.341 38.264 C 61.016 38.264,60.750 38.531,60.750 38.856 C 60.750 39.181,60.559 39.448,60.327 39.448 C 60.094 39.448,59.638 39.714,59.312 40.039 C 58.987 40.365,58.378 40.631,57.960 40.631 C 57.542 40.631,57.199 40.897,57.199 41.223 C 57.199 41.548,56.933 41.815,56.607 41.815 C 56.282 41.815,56.016 42.081,56.016 42.406 C 56.016 42.732,55.750 42.998,55.424 42.998 C 55.099 42.998,54.832 43.264,54.832 43.590 C 54.832 43.915,54.566 44.181,54.241 44.181 C 53.915 44.181,53.649 44.448,53.649 44.773 C 53.649 45.099,53.383 45.365,53.057 45.365 C 52.732 45.365,52.465 45.530,52.465 45.733 C 52.465 45.935,52.113 46.212,51.683 46.349 C 50.493 46.727,47.732 49.633,47.732 50.508 C 47.732 50.934,47.465 51.282,47.140 51.282 C 46.815 51.282,46.548 51.548,46.548 51.874 C 46.548 52.199,46.282 52.465,45.957 52.465 C 45.631 52.465,45.365 52.732,45.365 53.057 C 45.365 53.383,45.099 53.649,44.773 53.649 C 44.448 53.649,44.181 53.915,44.181 54.241 C 44.181 54.566,43.915 54.832,43.590 54.832 C 43.264 54.832,42.998 55.099,42.998 55.424 C 42.998 55.750,42.732 56.016,42.406 56.016 C 42.012 56.016,41.815 56.410,41.815 57.199 C 41.815 57.988,41.617 58.383,41.223 58.383 C 40.897 58.383,40.631 58.649,40.631 58.974 C 40.631 59.300,40.365 59.566,40.039 59.566 C 39.714 59.566,39.448 59.832,39.448 60.158 C 39.448 60.483,39.181 60.750,38.856 60.750 C 38.462 60.750,38.264 61.144,38.264 61.933 C 38.264 62.722,38.067 63.116,37.673 63.116 C 37.347 63.116,37.081 63.361,37.081 63.660 C 37.081 63.959,36.815 64.424,36.489 64.694 C 36.164 64.964,35.897 65.500,35.897 65.884 C 35.897 66.268,35.631 66.684,35.306 66.809 C 34.980 66.934,34.714 67.486,34.714 68.035 C 34.714 68.660,34.492 69.034,34.122 69.034 C 33.728 69.034,33.531 69.428,33.531 70.217 C 33.531 71.006,33.333 71.400,32.939 71.400 C 32.544 71.400,32.347 71.795,32.347 72.584 C 32.347 73.373,32.150 73.767,31.755 73.767 C 31.361 73.767,31.164 74.162,31.164 74.951 C 31.164 75.740,30.966 76.134,30.572 76.134 C 30.134 76.134,29.980 76.594,29.980 77.909 C 29.980 79.224,29.827 79.684,29.389 79.684 C 28.999 79.684,28.797 80.074,28.797 80.826 C 28.797 81.476,28.542 82.065,28.205 82.194 C 27.831 82.338,27.613 82.943,27.613 83.842 C 27.613 84.624,27.347 85.530,27.022 85.855 C 26.655 86.222,26.430 87.190,26.430 88.403 C 26.430 89.678,26.245 90.431,25.900 90.564 C 25.543 90.700,25.342 91.616,25.286 93.363 C 25.233 95.001,24.992 96.169,24.632 96.529 C 24.189 96.972,24.063 98.358,24.063 102.803 C 24.063 107.207,23.928 108.715,23.472 109.411 C 22.661 110.649,22.758 293.122,23.570 293.393 C 23.934 293.514,24.063 295.030,24.063 299.169 C 24.063 303.492,24.196 304.956,24.642 305.546 C 24.999 306.018,25.226 307.228,25.234 308.702 C 25.242 310.175,25.469 311.386,25.826 311.858 C 26.144 312.279,26.411 313.378,26.417 314.300 C 26.427 315.521,26.591 315.976,27.022 315.976 C 27.456 315.976,27.613 316.428,27.613 317.676 C 27.613 318.611,27.874 319.720,28.193 320.142 C 28.511 320.563,28.777 321.395,28.784 321.992 C 28.792 322.688,29.009 323.077,29.389 323.077 C 29.827 323.077,29.980 323.537,29.980 324.852 C 29.980 326.167,30.134 326.627,30.572 326.627 C 30.966 326.627,31.164 327.022,31.164 327.811 C 31.164 328.600,31.361 328.994,31.755 328.994 C 32.150 328.994,32.347 329.389,32.347 330.178 C 32.347 330.966,32.544 331.361,32.939 331.361 C 33.333 331.361,33.531 331.755,33.531 332.544 C 33.531 333.333,33.728 333.728,34.122 333.728 C 34.517 333.728,34.714 334.122,34.714 334.911 C 34.714 335.700,34.911 336.095,35.306 336.095 C 35.631 336.095,35.897 336.361,35.897 336.686 C 35.897 337.012,36.164 337.278,36.489 337.278 C 36.884 337.278,37.081 337.673,37.081 338.462 C 37.081 339.250,37.278 339.645,37.673 339.645 C 38.043 339.645,38.264 340.019,38.264 340.644 C 38.264 341.193,38.531 341.744,38.856 341.869 C 39.181 341.994,39.448 342.344,39.448 342.646 C 39.448 342.948,39.714 343.195,40.039 343.195 C 40.365 343.195,40.631 343.462,40.631 343.787 C 40.631 344.112,40.897 344.379,41.223 344.379 C 41.593 344.379,41.815 344.753,41.815 345.377 C 41.815 345.926,42.081 346.478,42.406 346.603 C 42.732 346.728,42.998 347.077,42.998 347.379 C 42.998 347.682,43.264 347.929,43.590 347.929 C 43.915 347.929,44.181 348.195,44.181 348.521 C 44.181 348.846,44.448 349.112,44.773 349.112 C 45.099 349.112,45.365 349.379,45.365 349.704 C 45.365 350.030,45.631 350.296,45.957 350.296 C 46.282 350.296,46.548 350.562,46.548 350.888 C 46.548 351.213,46.815 351.479,47.140 351.479 C 47.465 351.479,47.732 351.746,47.732 352.071 C 47.732 352.396,47.998 352.663,48.323 352.663 C 48.649 352.663,48.915 352.840,48.915 353.057 C 48.915 353.569,50.376 355.030,50.888 355.030 C 51.105 355.030,51.282 355.296,51.282 355.621 C 51.282 355.947,51.548 356.213,51.874 356.213 C 52.199 356.213,52.465 356.479,52.465 356.805 C 52.465 357.130,52.732 357.396,53.057 357.396 C 53.383 357.396,53.649 357.663,53.649 357.988 C 53.649 358.314,53.915 358.580,54.241 358.580 C 54.566 358.580,54.832 358.846,54.832 359.172 C 54.832 359.497,55.099 359.763,55.424 359.763 C 55.750 359.763,56.016 360.030,56.016 360.355 C 56.016 360.680,56.206 360.947,56.438 360.947 C 56.671 360.947,57.127 361.213,57.453 361.538 C 57.778 361.864,58.387 362.130,58.805 362.130 C 59.224 362.130,59.566 362.396,59.566 362.722 C 59.566 363.047,59.832 363.314,60.158 363.314 C 60.483 363.314,60.750 363.580,60.750 363.905 C 60.750 364.231,60.940 364.497,61.172 364.497 C 61.405 364.497,61.861 364.763,62.187 365.089 C 62.512 365.414,63.121 365.680,63.539 365.680 C 63.957 365.680,64.300 365.947,64.300 366.272 C 64.300 366.667,64.694 366.864,65.483 366.864 C 66.272 366.864,66.667 367.061,66.667 367.456 C 66.667 367.781,66.914 368.047,67.216 368.047 C 67.518 368.047,67.868 368.314,67.993 368.639 C 68.118 368.964,68.669 369.231,69.218 369.231 C 69.843 369.231,70.217 369.452,70.217 369.822 C 70.217 370.217,70.611 370.414,71.400 370.414 C 72.189 370.414,72.584 370.611,72.584 371.006 C 72.584 371.400,72.978 371.598,73.767 371.598 C 74.556 371.598,74.951 371.795,74.951 372.189 C 74.951 372.579,75.340 372.781,76.092 372.781 C 76.742 372.781,77.331 373.035,77.460 373.373 C 77.601 373.739,78.201 373.964,79.038 373.964 C 79.875 373.964,80.475 374.190,80.616 374.556 C 80.764 374.943,81.379 375.148,82.391 375.148 C 83.403 375.148,84.018 375.353,84.166 375.740 C 84.315 376.127,84.929 376.331,85.941 376.331 C 86.954 376.331,87.568 376.536,87.717 376.923 C 87.880 377.348,88.545 377.515,90.083 377.515 C 91.622 377.515,92.287 377.681,92.450 378.107 C 92.622 378.554,93.346 378.698,95.418 378.698 C 97.260 378.698,98.213 378.860,98.323 379.191 C 98.595 380.006,302.360 380.106,303.602 379.292 C 304.177 378.916,305.457 378.698,307.099 378.698 C 309.038 378.698,309.747 378.549,309.917 378.107 C 310.080 377.681,310.745 377.515,312.283 377.515 C 313.822 377.515,314.487 377.348,314.650 376.923 C 314.799 376.536,315.413 376.331,316.425 376.331 C 317.438 376.331,318.052 376.127,318.201 375.740 C 318.349 375.353,318.964 375.148,319.976 375.148 C 320.988 375.148,321.602 374.943,321.751 374.556 C 321.878 374.224,322.465 373.964,323.091 373.964 C 323.703 373.964,324.470 373.698,324.796 373.373 C 325.121 373.047,325.761 372.781,326.217 372.781 C 326.673 372.781,327.149 372.515,327.274 372.189 C 327.403 371.852,327.991 371.598,328.642 371.598 C 329.393 371.598,329.783 371.396,329.783 371.006 C 329.783 370.638,330.156 370.414,330.769 370.414 C 331.312 370.414,332.110 370.059,332.544 369.625 C 332.978 369.191,333.600 368.836,333.925 368.836 C 334.250 368.836,334.517 368.659,334.517 368.442 C 334.517 368.225,334.783 368.047,335.108 368.047 C 335.434 368.047,335.700 367.781,335.700 367.456 C 335.700 367.061,336.095 366.864,336.884 366.864 C 337.673 366.864,338.067 366.667,338.067 366.272 C 338.067 365.947,338.257 365.680,338.490 365.680 C 338.722 365.680,339.179 365.414,339.504 365.089 C 339.830 364.763,340.438 364.497,340.857 364.497 C 341.275 364.497,341.617 364.231,341.617 363.905 C 341.617 363.580,341.884 363.314,342.209 363.314 C 342.535 363.314,342.801 363.067,342.801 362.765 C 342.801 362.463,343.245 362.104,343.787 361.968 C 344.329 361.832,344.773 361.547,344.773 361.334 C 344.773 361.121,345.128 360.947,345.562 360.947 C 346.000 360.947,346.351 360.684,346.351 360.355 C 346.351 360.030,346.617 359.763,346.943 359.763 C 347.268 359.763,347.535 359.497,347.535 359.172 C 347.535 358.846,347.801 358.580,348.126 358.580 C 348.452 358.580,348.718 358.314,348.718 357.988 C 348.718 357.663,348.984 357.396,349.310 357.396 C 349.635 357.396,349.901 357.130,349.901 356.805 C 349.901 356.479,350.168 356.213,350.493 356.213 C 350.819 356.213,351.085 355.947,351.085 355.621 C 351.085 355.296,351.351 355.030,351.677 355.030 C 352.002 355.030,352.268 354.763,352.268 354.438 C 352.268 354.112,352.535 353.846,352.860 353.846 C 353.185 353.846,353.452 353.580,353.452 353.254 C 353.452 352.929,353.718 352.663,354.043 352.663 C 354.369 352.663,354.635 352.396,354.635 352.071 C 354.635 351.746,354.901 351.479,355.227 351.479 C 355.552 351.479,355.819 351.213,355.819 350.888 C 355.819 350.562,356.085 350.296,356.410 350.296 C 356.736 350.296,357.002 350.030,357.002 349.704 C 357.002 349.379,357.268 349.112,357.594 349.112 C 357.919 349.112,358.185 348.846,358.185 348.521 C 358.185 348.195,358.452 347.929,358.777 347.929 C 359.106 347.929,359.369 347.578,359.369 347.140 C 359.369 346.706,359.543 346.351,359.756 346.351 C 359.969 346.351,360.254 345.907,360.390 345.365 C 360.526 344.822,360.885 344.379,361.187 344.379 C 361.489 344.379,361.736 344.112,361.736 343.787 C 361.736 343.462,362.002 343.195,362.327 343.195 C 362.698 343.195,362.919 342.821,362.919 342.197 C 362.919 341.647,363.185 341.096,363.511 340.971 C 363.836 340.846,364.103 340.497,364.103 340.194 C 364.103 339.892,364.369 339.645,364.694 339.645 C 365.089 339.645,365.286 339.250,365.286 338.462 C 365.286 337.673,365.483 337.278,365.878 337.278 C 366.203 337.278,366.469 337.088,366.469 336.855 C 366.469 336.623,366.736 336.167,367.061 335.841 C 367.387 335.516,367.653 334.907,367.653 334.489 C 367.653 334.070,367.919 333.728,368.245 333.728 C 368.639 333.728,368.836 333.333,368.836 332.544 C 368.836 331.755,369.034 331.361,369.428 331.361 C 369.818 331.361,370.020 330.971,370.020 330.220 C 370.020 329.569,370.274 328.981,370.611 328.851 C 370.937 328.727,371.203 328.194,371.203 327.668 C 371.203 327.142,371.469 326.609,371.795 326.485 C 372.185 326.335,372.387 325.717,372.387 324.667 C 372.387 323.517,372.550 323.077,372.978 323.077 C 373.417 323.077,373.570 322.617,373.570 321.302 C 373.570 319.987,373.723 319.527,374.162 319.527 C 374.600 319.527,374.753 319.066,374.753 317.751 C 374.753 316.437,374.907 315.976,375.345 315.976 C 375.800 315.976,375.937 315.471,375.937 313.794 C 375.937 312.219,376.101 311.549,376.529 311.385 C 376.980 311.212,377.120 310.475,377.120 308.284 C 377.120 306.093,377.261 305.356,377.712 305.183 C 378.613 304.837,378.613 98.183,377.712 97.436 C 377.291 97.086,377.120 96.161,377.120 94.219 C 377.120 92.161,376.976 91.438,376.529 91.267 C 376.106 91.105,375.937 90.444,375.937 88.955 C 375.937 87.465,375.768 86.805,375.345 86.642 C 374.958 86.494,374.753 85.879,374.753 84.867 C 374.753 83.855,374.549 83.241,374.162 83.092 C 373.771 82.942,373.570 82.324,373.570 81.275 C 373.570 80.124,373.406 79.684,372.978 79.684 C 372.540 79.684,372.387 79.224,372.387 77.909 C 372.387 76.594,372.233 76.134,371.795 76.134 C 371.400 76.134,371.203 75.740,371.203 74.951 C 371.203 74.162,371.006 73.767,370.611 73.767 C 370.217 73.767,370.020 73.373,370.020 72.584 C 370.020 71.795,369.822 71.400,369.428 71.400 C 369.034 71.400,368.836 71.006,368.836 70.217 C 368.836 69.428,368.639 69.034,368.245 69.034 C 367.850 69.034,367.653 68.639,367.653 67.850 C 367.653 67.061,367.456 66.667,367.061 66.667 C 366.736 66.667,366.469 66.400,366.469 66.075 C 366.469 65.750,366.203 65.483,365.878 65.483 C 365.483 65.483,365.286 65.089,365.286 64.300 C 365.286 63.511,365.089 63.116,364.694 63.116 C 364.324 63.116,364.103 62.742,364.103 62.118 C 364.103 61.569,363.836 61.017,363.511 60.892 C 363.185 60.767,362.919 60.418,362.919 60.116 C 362.919 59.813,362.653 59.566,362.327 59.566 C 362.002 59.566,361.736 59.300,361.736 58.974 C 361.736 58.649,361.469 58.383,361.144 58.383 C 360.783 58.383,360.552 58.015,360.552 57.439 C 360.552 56.919,360.286 56.392,359.961 56.268 C 359.635 56.143,359.369 55.769,359.369 55.436 C 359.369 55.104,359.103 54.832,358.777 54.832 C 358.452 54.832,358.185 54.566,358.185 54.241 C 358.185 53.915,357.919 53.649,357.594 53.649 C 357.268 53.649,357.002 53.383,357.002 53.057 C 357.002 52.732,356.736 52.465,356.410 52.465 C 356.085 52.465,355.819 52.199,355.819 51.874 C 355.819 51.548,355.552 51.282,355.227 51.282 C 354.901 51.282,354.635 51.016,354.635 50.690 C 354.635 50.365,354.381 50.099,354.071 50.099 C 353.760 50.099,353.450 49.701,353.380 49.215 C 353.309 48.716,352.782 48.105,352.170 47.813 C 351.573 47.527,351.085 47.126,351.085 46.921 C 351.085 46.716,350.819 46.548,350.493 46.548 C 350.168 46.548,349.901 46.282,349.901 45.957 C 349.901 45.631,349.635 45.365,349.310 45.365 C 348.984 45.365,348.718 45.099,348.718 44.773 C 348.718 44.448,348.452 44.181,348.126 44.181 C 347.801 44.181,347.535 43.915,347.535 43.590 C 347.535 43.264,347.268 42.998,346.943 42.998 C 346.617 42.998,346.351 42.732,346.351 42.406 C 346.351 42.081,346.085 41.815,345.759 41.815 C 345.434 41.815,345.168 41.548,345.168 41.223 C 345.168 40.897,345.035 40.652,344.872 40.678 C 343.784 40.850,342.801 40.547,342.801 40.039 C 342.801 39.714,342.535 39.448,342.209 39.448 C 341.884 39.448,341.617 39.181,341.617 38.856 C 341.617 38.531,341.351 38.264,341.026 38.264 C 340.700 38.264,340.434 37.998,340.434 37.673 C 340.434 37.278,340.039 37.081,339.250 37.081 C 338.554 37.081,338.067 36.874,338.067 36.578 C 338.067 36.301,337.270 35.724,336.296 35.296 C 335.321 34.867,334.523 34.295,334.521 34.024 C 334.518 33.752,334.092 33.531,333.573 33.531 C 333.054 33.531,332.527 33.264,332.402 32.939 C 332.277 32.613,331.744 32.347,331.218 32.347 C 330.692 32.347,330.160 32.081,330.035 31.755 C 329.910 31.430,329.353 31.164,328.797 31.164 C 328.241 31.164,327.684 30.897,327.559 30.572 C 327.434 30.247,326.983 29.980,326.557 29.980 C 326.131 29.980,325.516 29.714,325.190 29.389 C 324.865 29.063,324.009 28.797,323.288 28.797 C 322.487 28.797,321.890 28.567,321.751 28.205 C 321.621 27.866,321.032 27.613,320.370 27.613 C 319.709 27.613,319.120 27.361,318.989 27.022 C 318.846 26.647,318.241 26.430,317.341 26.430 C 316.560 26.430,315.654 26.164,315.328 25.838 C 314.986 25.496,314.022 25.247,313.038 25.247 C 312.009 25.247,311.146 25.013,310.848 24.655 C 310.507 24.244,309.602 24.063,307.890 24.063 C 306.256 24.063,305.267 23.876,304.964 23.511 C 304.617 23.093,303.197 22.945,299.109 22.902 C 295.381 22.862,293.622 22.697,293.419 22.369 C 292.926 21.571,109.927 21.490,109.130 22.287 M199.376 53.099 C 199.936 53.314,200.000 55.890,200.000 78.161 C 200.000 99.880,200.074 103.006,200.592 103.168 C 201.662 103.503,202.155 103.747,203.353 104.535 C 204.004 104.963,204.936 105.489,205.424 105.704 C 205.912 105.919,206.312 106.277,206.312 106.499 C 206.312 106.721,206.656 106.903,207.077 106.903 C 207.498 106.903,207.941 107.062,208.062 107.257 C 208.182 107.451,208.985 107.978,209.847 108.428 C 210.709 108.877,212.175 109.728,213.104 110.319 C 214.033 110.911,215.503 111.779,216.371 112.249 C 217.239 112.719,218.570 113.482,219.329 113.944 C 220.089 114.405,221.065 114.966,221.499 115.189 C 221.933 115.413,223.176 116.131,224.260 116.785 C 225.345 117.440,226.677 118.188,227.219 118.447 C 227.761 118.706,228.347 119.144,228.521 119.420 C 228.694 119.695,229.172 119.921,229.582 119.921 C 229.992 119.921,230.445 120.110,230.587 120.340 C 230.729 120.570,231.228 120.927,231.695 121.134 C 232.585 121.527,232.763 121.630,239.505 125.682 C 241.814 127.070,243.841 128.205,244.010 128.205 C 244.179 128.205,244.597 128.449,244.939 128.746 C 245.282 129.044,246.627 129.865,247.929 130.572 C 249.231 131.279,250.576 132.100,250.919 132.398 C 251.261 132.695,251.654 132.939,251.792 132.939 C 251.930 132.939,253.359 133.738,254.967 134.714 C 256.575 135.690,258.090 136.489,258.334 136.489 C 258.578 136.489,258.777 136.625,258.777 136.791 C 258.777 136.956,259.665 137.513,260.750 138.028 C 261.834 138.543,262.722 139.118,262.722 139.305 C 262.722 139.492,262.918 139.645,263.158 139.645 C 263.398 139.645,265.509 140.799,267.850 142.209 C 270.191 143.619,272.302 144.773,272.542 144.773 C 272.782 144.773,272.978 144.916,272.978 145.090 C 272.978 145.264,273.863 145.841,274.945 146.372 C 276.026 146.903,276.914 147.470,276.917 147.633 C 276.920 147.796,277.125 147.929,277.373 147.929 C 277.620 147.929,278.688 148.462,279.745 149.112 C 280.803 149.763,281.755 150.296,281.860 150.296 C 281.965 150.296,282.051 139.571,282.051 126.462 C 282.051 113.354,282.159 102.348,282.291 102.005 C 282.542 101.351,283.629 101.127,283.629 101.729 C 283.629 101.921,283.940 102.190,284.320 102.327 C 285.172 102.635,286.196 103.256,287.968 104.536 C 289.387 105.562,290.375 106.183,291.716 106.892 C 292.150 107.122,292.981 107.618,293.562 107.994 C 295.082 108.979,299.861 111.989,300.787 112.545 C 301.220 112.805,302.197 113.482,302.957 114.050 C 303.717 114.618,304.739 115.206,305.227 115.359 C 305.715 115.511,306.114 115.780,306.114 115.957 C 306.114 116.134,306.425 116.386,306.805 116.517 C 307.184 116.649,308.028 117.111,308.679 117.545 C 309.329 117.979,310.128 118.455,310.454 118.602 C 310.779 118.749,311.667 119.342,312.426 119.921 C 313.185 120.500,314.073 121.091,314.398 121.234 C 314.724 121.377,315.345 121.717,315.778 121.990 C 320.316 124.844,322.229 126.115,322.978 126.773 L 323.866 127.554 323.860 200.167 C 323.857 240.105,323.707 273.013,323.527 273.297 C 323.114 273.947,321.664 273.609,319.190 272.287 C 318.182 271.748,316.114 270.663,314.596 269.875 C 313.077 269.087,311.746 268.353,311.637 268.245 C 311.529 268.136,309.842 267.232,307.890 266.234 C 305.937 265.237,303.185 263.798,301.775 263.035 C 300.365 262.273,297.525 260.781,295.464 259.720 C 293.402 258.659,291.627 257.702,291.519 257.593 C 291.410 257.485,289.901 256.699,288.166 255.847 C 286.430 254.995,284.883 254.108,284.728 253.875 C 284.255 253.163,280.705 253.361,279.924 254.142 C 279.544 254.522,278.980 254.832,278.670 254.832 C 278.360 254.832,278.107 254.998,278.107 255.200 C 278.107 255.403,277.723 255.690,277.255 255.838 C 276.787 255.987,275.122 256.887,273.556 257.837 C 271.990 258.788,270.509 259.566,270.266 259.566 C 270.022 259.566,269.822 259.744,269.822 259.961 C 269.822 260.178,269.643 260.355,269.423 260.355 C 269.204 260.355,266.197 262.041,262.742 264.103 C 259.287 266.164,256.271 267.850,256.041 267.850 C 255.810 267.850,255.621 267.989,255.621 268.158 C 255.621 268.327,255.133 268.672,254.536 268.923 C 253.940 269.174,252.564 269.922,251.479 270.585 C 250.394 271.248,249.019 271.987,248.422 272.226 C 247.825 272.465,247.337 272.800,247.337 272.971 C 247.337 273.141,247.027 273.388,246.647 273.519 C 246.267 273.651,245.424 274.113,244.773 274.546 C 244.122 274.979,243.218 275.499,242.763 275.701 C 242.022 276.030,237.412 278.713,235.897 279.697 C 235.572 279.908,234.866 280.269,234.328 280.499 C 233.790 280.729,233.257 281.043,233.144 281.196 C 233.031 281.350,232.495 281.690,231.953 281.953 C 230.622 282.596,228.169 284.017,226.142 285.319 C 225.224 285.908,224.305 286.391,224.099 286.391 C 223.893 286.391,223.490 286.612,223.204 286.884 C 222.917 287.155,221.884 287.786,220.907 288.286 C 219.931 288.786,218.600 289.538,217.949 289.956 C 217.298 290.375,216.410 290.906,215.976 291.135 C 214.300 292.022,213.329 292.628,212.906 293.051 C 212.664 293.293,212.161 293.491,211.788 293.491 C 211.416 293.491,211.052 293.627,210.980 293.793 C 210.838 294.118,206.018 297.041,205.624 297.041 C 205.494 297.041,205.063 297.335,204.666 297.694 C 203.932 298.359,206.580 300.233,213.807 304.163 C 214.783 304.694,215.671 305.217,215.780 305.325 C 215.961 305.505,217.636 306.438,220.692 308.060 C 221.333 308.400,222.100 308.900,222.397 309.172 C 222.693 309.443,223.175 309.665,223.467 309.665 C 223.759 309.665,224.057 309.798,224.129 309.961 C 224.201 310.123,225.118 310.700,226.165 311.243 C 228.227 312.310,229.138 312.837,230.966 314.017 C 231.617 314.437,232.590 314.972,233.128 315.206 C 233.666 315.440,234.199 315.757,234.311 315.910 C 234.424 316.064,234.961 316.402,235.503 316.661 C 236.045 316.921,237.377 317.671,238.462 318.328 C 239.546 318.985,240.922 319.718,241.519 319.958 C 242.115 320.197,242.604 320.553,242.604 320.749 C 242.604 320.944,242.848 321.105,243.147 321.105 C 245.912 321.105,243.323 324.211,238.659 326.491 C 238.333 326.650,237.832 327.012,237.546 327.295 C 237.259 327.579,236.771 327.811,236.461 327.811 C 236.151 327.811,235.897 327.944,235.897 328.107 C 235.897 328.269,234.988 328.935,233.877 329.586 C 232.766 330.237,231.390 331.082,230.820 331.464 C 230.250 331.846,229.472 332.266,229.093 332.398 C 228.713 332.529,228.402 332.781,228.402 332.958 C 228.402 333.135,228.003 333.405,227.515 333.557 C 227.027 333.710,226.538 333.955,226.430 334.103 C 226.321 334.250,224.635 335.324,222.682 336.489 C 220.730 337.654,219.043 338.724,218.935 338.868 C 218.826 339.011,218.265 339.378,217.687 339.683 C 215.809 340.673,209.679 344.524,209.143 345.050 C 208.857 345.332,208.383 345.562,208.091 345.562 C 207.800 345.562,207.502 345.705,207.429 345.879 C 207.261 346.285,202.855 348.946,201.494 349.464 C 200.701 349.765,200.344 349.724,199.982 349.288 C 199.722 348.975,199.264 348.718,198.966 348.718 C 198.667 348.718,198.422 348.540,198.422 348.323 C 198.422 348.107,198.227 347.929,197.989 347.929 C 197.751 347.929,194.307 345.976,190.335 343.590 C 186.364 341.203,182.920 339.250,182.682 339.250 C 182.443 339.250,182.249 339.112,182.249 338.943 C 182.249 338.773,181.760 338.411,181.164 338.138 C 179.164 337.223,178.304 336.699,178.304 336.396 C 178.304 336.230,178.050 336.095,177.740 336.095 C 177.430 336.095,176.934 335.873,176.637 335.602 C 176.341 335.330,175.485 334.776,174.735 334.370 C 172.008 332.892,170.587 332.081,169.428 331.340 C 168.777 330.924,167.804 330.392,167.266 330.159 C 166.728 329.925,166.196 329.612,166.083 329.463 C 165.761 329.037,164.404 328.235,163.215 327.766 C 162.618 327.531,162.130 327.179,162.130 326.983 C 162.130 326.787,161.932 326.627,161.689 326.627 C 161.275 326.627,156.644 323.979,156.213 323.495 C 156.104 323.374,155.394 322.942,154.635 322.536 C 152.125 321.193,150.508 320.271,149.310 319.501 C 148.659 319.082,147.638 318.545,147.041 318.306 C 146.445 318.067,145.957 317.711,145.957 317.516 C 145.957 317.320,145.712 317.160,145.413 317.160 C 145.114 317.160,144.649 316.893,144.379 316.568 C 144.109 316.243,143.549 315.976,143.135 315.976 C 142.720 315.976,142.279 315.710,142.154 315.385 C 142.030 315.059,141.627 314.793,141.260 314.793 C 140.892 314.793,140.394 314.595,140.152 314.353 C 139.728 313.930,138.757 313.324,137.081 312.437 C 136.647 312.208,135.759 311.668,135.108 311.238 C 134.458 310.808,133.437 310.261,132.840 310.022 C 132.244 309.783,131.755 309.427,131.755 309.232 C 131.755 309.036,131.574 308.876,131.353 308.876 C 131.132 308.876,130.200 308.393,129.282 307.802 C 128.364 307.212,126.815 306.317,125.838 305.814 C 124.862 305.311,123.531 304.554,122.880 304.132 C 122.229 303.710,121.341 303.182,120.907 302.959 C 120.473 302.735,119.586 302.203,118.935 301.775 C 118.284 301.348,117.396 300.836,116.963 300.637 C 116.529 300.439,115.500 299.815,114.677 299.251 C 113.854 298.686,113.104 298.225,113.012 298.225 C 112.919 298.225,111.551 297.462,109.972 296.529 C 108.393 295.596,106.834 294.706,106.509 294.552 C 106.183 294.398,105.385 293.920,104.734 293.491 C 104.083 293.062,103.284 292.589,102.959 292.439 C 102.633 292.290,101.657 291.715,100.789 291.161 C 98.344 289.601,98.027 289.416,95.990 288.363 C 94.941 287.821,93.990 287.255,93.878 287.106 C 93.765 286.957,93.232 286.643,92.694 286.409 C 92.156 286.176,91.183 285.630,90.533 285.197 C 89.882 284.763,89.038 284.302,88.659 284.170 C 88.279 284.039,87.968 283.775,87.968 283.583 C 87.968 283.392,87.743 283.235,87.466 283.235 C 87.190 283.235,86.021 282.613,84.868 281.854 C 83.715 281.095,82.715 280.473,82.645 280.473 C 82.576 280.473,80.725 279.408,78.533 278.107 C 76.341 276.805,74.453 275.740,74.337 275.740 C 74.222 275.740,73.647 275.294,73.060 274.749 L 71.992 273.758 73.176 272.791 C 73.826 272.259,74.659 271.817,75.026 271.809 C 75.393 271.801,75.785 271.647,75.896 271.466 C 76.008 271.285,78.637 269.854,81.738 268.287 C 84.839 266.719,87.687 265.270,88.067 265.066 C 88.447 264.861,89.068 264.527,89.448 264.323 C 89.827 264.119,92.675 262.669,95.777 261.102 C 98.878 259.534,101.507 258.104,101.618 257.923 C 101.730 257.742,102.151 257.594,102.555 257.594 C 102.958 257.594,103.346 257.443,103.419 257.259 C 103.491 257.075,105.059 256.177,106.903 255.264 C 108.748 254.351,110.523 253.449,110.848 253.260 C 111.174 253.071,111.706 252.816,112.032 252.694 C 112.357 252.571,112.890 252.305,113.215 252.102 C 113.540 251.899,114.117 251.637,114.497 251.520 C 115.396 251.242,115.593 154.634,114.694 154.637 C 114.423 154.638,113.402 155.170,112.426 155.819 C 111.450 156.468,110.448 156.999,110.200 157.000 C 109.952 157.001,109.647 157.268,109.522 157.594 C 109.397 157.919,108.934 158.185,108.494 158.185 C 108.053 158.185,107.692 158.367,107.692 158.590 C 107.692 158.812,107.293 159.170,106.805 159.384 C 106.317 159.599,105.385 160.125,104.734 160.554 C 104.083 160.982,103.284 161.455,102.959 161.604 C 102.633 161.753,101.657 162.328,100.789 162.882 C 98.470 164.362,97.701 164.827,97.041 165.150 C 96.716 165.309,96.215 165.671,95.928 165.954 C 95.642 166.238,95.154 166.469,94.844 166.469 C 94.534 166.469,94.280 166.644,94.280 166.856 C 94.280 167.069,93.836 167.355,93.294 167.491 C 92.751 167.627,92.308 167.856,92.308 168.000 C 92.308 168.143,91.468 168.701,90.441 169.239 C 89.414 169.777,88.336 170.439,88.046 170.710 C 87.755 170.981,87.279 171.203,86.987 171.203 C 86.695 171.203,86.397 171.350,86.325 171.531 C 86.252 171.711,84.894 172.643,83.305 173.602 C 81.717 174.561,79.941 175.646,79.360 176.013 C 77.232 177.359,75.992 177.909,75.084 177.909 L 74.156 177.909 74.257 152.583 L 74.359 127.257 75.937 126.136 C 76.805 125.520,78.003 124.828,78.600 124.599 C 79.196 124.370,79.684 124.023,79.684 123.827 C 79.684 123.632,79.929 123.471,80.228 123.471 C 80.527 123.471,80.992 123.205,81.262 122.880 C 81.532 122.554,82.087 122.288,82.494 122.288 C 82.901 122.288,83.235 122.101,83.235 121.873 C 83.235 121.645,83.767 121.272,84.418 121.045 C 85.069 120.819,85.602 120.473,85.602 120.277 C 85.602 120.081,85.846 119.921,86.145 119.921 C 86.444 119.921,86.909 119.655,87.179 119.329 C 87.450 119.004,87.989 118.738,88.378 118.738 C 88.768 118.738,89.145 118.599,89.218 118.430 C 89.397 118.012,105.969 108.087,106.489 108.087 C 106.717 108.087,106.903 107.921,106.903 107.719 C 106.903 107.517,107.291 107.228,107.764 107.078 C 108.237 106.928,109.329 106.294,110.190 105.671 C 111.051 105.047,111.976 104.536,112.246 104.536 C 112.515 104.536,112.838 104.270,112.963 103.945 C 113.088 103.619,113.464 103.353,113.798 103.353 C 114.132 103.353,115.140 102.821,116.039 102.170 C 116.937 101.519,117.912 100.986,118.205 100.986 C 118.498 100.986,118.738 100.812,118.738 100.599 C 118.738 100.386,119.181 100.101,119.724 99.965 C 120.266 99.829,120.710 99.603,120.710 99.463 C 120.710 99.324,121.553 98.769,122.584 98.230 C 123.614 97.691,124.692 97.026,124.979 96.751 C 125.266 96.477,125.652 96.252,125.839 96.252 C 126.025 96.252,127.250 95.540,128.561 94.669 C 129.873 93.798,131.350 92.908,131.844 92.691 C 132.338 92.474,133.274 91.942,133.925 91.508 C 134.576 91.075,135.419 90.613,135.799 90.482 C 136.179 90.351,136.489 90.104,136.489 89.933 C 136.489 89.763,136.977 89.428,137.574 89.189 C 138.171 88.950,139.191 88.403,139.842 87.972 C 140.493 87.541,141.292 87.063,141.617 86.910 C 141.943 86.757,142.444 86.400,142.730 86.117 C 143.017 85.833,143.505 85.602,143.815 85.602 C 144.125 85.602,144.379 85.441,144.379 85.246 C 144.379 85.050,144.867 84.697,145.464 84.462 C 146.652 83.994,148.010 83.191,148.331 82.766 C 148.444 82.617,148.977 82.304,149.515 82.070 C 150.053 81.836,151.026 81.295,151.677 80.866 C 152.327 80.438,153.126 79.962,153.452 79.809 C 153.777 79.656,154.278 79.299,154.565 79.016 C 154.851 78.733,155.340 78.501,155.649 78.501 C 155.959 78.501,156.213 78.341,156.213 78.145 C 156.213 77.949,156.701 77.597,157.298 77.362 C 158.422 76.919,159.815 76.111,160.158 75.702 C 160.266 75.573,160.829 75.218,161.409 74.913 C 165.343 72.845,166.075 72.413,166.075 72.162 C 166.075 72.007,166.519 71.769,167.061 71.633 C 167.604 71.497,168.047 71.211,168.047 70.998 C 168.047 70.786,168.243 70.611,168.482 70.611 C 169.030 70.611,179.638 64.266,179.816 63.832 C 179.888 63.655,180.123 63.511,180.339 63.511 C 180.554 63.511,181.968 62.756,183.480 61.834 C 184.993 60.912,186.536 59.980,186.910 59.763 C 190.281 57.807,191.548 57.036,191.716 56.839 C 191.903 56.620,192.718 56.163,196.156 54.349 C 196.971 53.919,197.735 53.408,197.856 53.214 C 198.112 52.799,198.515 52.769,199.376 53.099 M196.450 104.850 C 195.907 105.217,195.229 105.740,194.942 106.013 C 194.656 106.286,194.273 106.509,194.091 106.509 C 193.910 106.509,192.547 107.307,191.062 108.283 C 189.578 109.259,188.156 110.058,187.903 110.058 C 187.650 110.059,187.383 110.199,187.311 110.371 C 187.134 110.790,183.410 113.044,182.326 113.388 C 181.849 113.539,181.460 113.807,181.460 113.985 C 181.460 114.162,181.149 114.419,180.769 114.556 C 180.059 114.813,179.654 115.051,176.884 116.839 C 175.995 117.413,174.664 118.214,173.926 118.619 C 173.188 119.024,171.874 119.810,171.006 120.365 C 170.138 120.921,168.687 121.802,167.781 122.325 C 163.912 124.555,160.306 126.781,159.665 127.336 C 159.014 127.898,158.974 130.748,158.974 176.752 L 158.974 225.571 157.871 226.494 C 157.264 227.001,156.066 227.771,155.208 228.205 C 154.351 228.639,153.560 229.094,153.452 229.215 C 153.041 229.676,148.399 232.347,148.009 232.347 C 147.784 232.347,147.541 232.490,147.469 232.664 C 147.288 233.099,142.606 235.897,142.059 235.897 C 141.816 235.897,141.617 236.062,141.617 236.264 C 141.617 236.466,140.774 237.043,139.744 237.546 C 138.713 238.050,137.635 238.683,137.349 238.955 C 137.062 239.226,136.574 239.448,136.264 239.448 C 135.954 239.448,135.700 239.607,135.700 239.802 C 135.700 239.997,135.035 240.508,134.221 240.938 C 130.822 242.731,129.971 243.207,129.783 243.417 C 129.371 243.878,124.730 246.548,124.340 246.548 C 124.116 246.548,123.872 246.691,123.800 246.865 C 123.728 247.039,122.515 247.866,121.105 248.703 C 116.644 251.349,116.643 251.351,119.724 252.804 C 120.158 253.008,121.186 253.637,122.010 254.201 C 122.833 254.765,123.663 255.227,123.855 255.227 C 124.047 255.227,124.439 255.449,124.725 255.720 C 125.012 255.991,126.045 256.622,127.022 257.122 C 127.998 257.622,129.329 258.376,129.980 258.797 C 130.631 259.219,131.652 259.759,132.249 259.998 C 132.845 260.237,133.333 260.592,133.333 260.788 C 133.333 260.984,133.678 261.144,134.099 261.144 C 134.520 261.144,134.981 261.332,135.124 261.563 C 135.266 261.793,135.765 262.151,136.232 262.358 C 136.699 262.564,137.613 263.083,138.264 263.511 C 138.915 263.938,139.803 264.468,140.237 264.687 C 140.671 264.907,141.292 265.252,141.617 265.454 C 141.943 265.656,142.475 265.924,142.801 266.051 C 143.126 266.177,143.925 266.631,144.576 267.060 C 145.227 267.488,146.114 268.001,146.548 268.199 C 146.982 268.398,147.959 268.977,148.718 269.487 C 149.477 269.997,150.897 270.823,151.874 271.323 C 152.850 271.823,154.181 272.575,154.832 272.994 C 155.483 273.413,156.371 273.939,156.805 274.162 C 157.239 274.386,158.324 274.983,159.216 275.488 L 160.839 276.406 162.372 275.362 C 163.215 274.789,164.172 274.193,164.497 274.039 C 164.822 273.885,165.621 273.407,166.272 272.978 C 166.923 272.549,167.722 272.073,168.047 271.921 C 168.373 271.768,169.711 270.912,171.021 270.018 C 172.331 269.124,173.662 268.269,173.980 268.117 C 174.297 267.966,175.089 267.490,175.740 267.061 C 176.391 266.632,177.189 266.154,177.515 265.999 C 177.840 265.844,178.842 265.221,179.742 264.614 C 180.641 264.007,181.554 263.511,181.770 263.511 C 181.987 263.511,182.266 263.245,182.391 262.919 C 182.516 262.594,182.979 262.327,183.420 262.327 C 183.860 262.327,184.221 262.146,184.221 261.923 C 184.221 261.701,184.620 261.343,185.108 261.128 C 185.597 260.914,186.529 260.388,187.179 259.961 C 187.830 259.533,188.718 259.004,189.152 258.784 C 190.261 258.222,191.393 257.481,192.023 256.903 C 192.319 256.632,192.815 256.410,193.125 256.410 C 193.435 256.410,193.688 256.261,193.688 256.079 C 193.688 255.897,194.088 255.540,194.576 255.286 C 195.064 255.032,195.996 254.473,196.647 254.044 C 197.298 253.614,198.097 253.139,198.422 252.986 C 198.748 252.834,199.706 252.211,200.552 251.601 C 201.398 250.992,202.330 250.493,202.623 250.493 C 202.916 250.493,203.156 250.344,203.156 250.162 C 203.156 249.980,203.555 249.623,204.043 249.369 C 204.532 249.115,205.464 248.556,206.114 248.128 C 206.765 247.700,207.653 247.169,208.087 246.950 C 209.196 246.388,210.328 245.647,210.958 245.069 C 211.254 244.798,211.735 244.576,212.027 244.576 C 212.319 244.576,212.617 244.429,212.689 244.249 C 212.761 244.069,214.120 243.137,215.709 242.178 C 217.297 241.219,219.072 240.125,219.653 239.748 C 220.235 239.371,220.976 238.940,221.302 238.791 C 221.627 238.641,221.982 238.411,222.091 238.280 C 222.199 238.148,224.028 236.981,226.154 235.687 C 228.281 234.392,230.500 233.025,231.085 232.649 C 231.671 232.272,232.505 231.800,232.939 231.598 C 233.373 231.397,234.339 230.773,235.087 230.212 C 235.834 229.650,236.662 229.191,236.927 229.191 C 237.193 229.191,237.469 229.051,237.541 228.879 C 238.139 227.457,242.604 226.379,242.604 227.656 C 242.604 227.850,242.802 228.008,243.045 228.008 C 243.592 228.008,248.274 230.807,248.455 231.242 C 248.527 231.416,248.825 231.558,249.117 231.558 C 249.409 231.558,249.890 231.780,250.186 232.051 C 251.004 232.801,252.151 233.496,253.353 233.969 C 253.950 234.204,254.438 234.557,254.438 234.753 C 254.438 234.948,254.691 235.108,255.001 235.108 C 255.311 235.108,255.800 235.340,256.086 235.624 C 256.373 235.907,256.874 236.264,257.199 236.417 C 257.525 236.570,258.323 237.046,258.974 237.475 C 259.625 237.904,260.424 238.382,260.750 238.537 C 261.075 238.691,261.963 239.244,262.722 239.764 C 263.481 240.284,264.458 240.878,264.892 241.082 C 266.073 241.639,269.384 243.714,269.823 244.172 C 270.011 244.369,270.926 244.877,274.260 246.636 C 275.074 247.066,275.740 247.577,275.740 247.772 C 275.740 247.967,276.100 248.126,276.541 248.126 C 276.982 248.126,277.444 248.393,277.569 248.718 C 277.694 249.043,278.036 249.310,278.328 249.310 C 278.621 249.310,279.534 249.767,280.357 250.325 L 281.854 251.341 281.956 226.604 C 282.067 199.500,282.227 201.527,279.882 200.374 C 279.448 200.161,278.205 199.451,277.120 198.797 C 276.036 198.142,274.704 197.394,274.162 197.135 C 273.619 196.875,273.072 196.520,272.947 196.345 C 272.715 196.024,270.055 194.465,268.245 193.590 C 267.702 193.327,267.170 193.006,267.061 192.876 C 266.953 192.745,266.021 192.222,264.990 191.713 C 263.960 191.204,263.116 190.660,263.116 190.505 C 263.116 190.350,262.673 190.112,262.130 189.976 C 261.588 189.840,261.144 189.554,261.144 189.342 C 261.144 189.129,260.949 188.955,260.710 188.955 C 260.472 188.955,257.472 187.268,254.043 185.207 C 250.615 183.146,247.615 181.460,247.377 181.460 C 247.138 181.460,246.943 181.282,246.943 181.065 C 246.943 180.848,246.704 180.671,246.411 180.671 C 246.119 180.671,245.471 180.316,244.970 179.882 C 244.470 179.448,243.822 179.093,243.529 179.093 C 243.237 179.093,242.998 178.934,242.998 178.741 C 242.998 178.548,242.554 178.278,242.012 178.142 C 241.469 178.006,241.026 177.720,241.026 177.507 C 241.026 177.294,240.826 177.120,240.583 177.120 C 240.339 177.120,238.874 176.355,237.328 175.420 C 235.782 174.485,234.250 173.595,233.925 173.443 C 233.600 173.291,232.801 172.816,232.150 172.388 C 231.499 171.960,230.611 171.427,230.178 171.203 C 229.744 170.980,228.856 170.445,228.205 170.015 C 227.554 169.585,226.534 169.038,225.937 168.799 C 225.340 168.560,224.852 168.204,224.852 168.009 C 224.852 167.813,224.598 167.653,224.289 167.653 C 223.979 167.653,223.482 167.410,223.185 167.113 C 222.889 166.816,222.255 166.449,221.776 166.298 C 221.298 166.146,220.907 165.856,220.907 165.654 C 220.907 165.452,220.709 165.286,220.466 165.286 C 219.919 165.286,215.236 162.487,215.056 162.052 C 214.984 161.878,214.595 161.736,214.192 161.736 C 213.789 161.736,213.342 161.547,213.200 161.317 C 213.058 161.087,212.559 160.729,212.092 160.522 C 211.625 160.315,210.710 159.796,210.059 159.369 C 209.408 158.941,208.521 158.412,208.087 158.192 C 207.653 157.973,207.032 157.626,206.706 157.423 C 206.381 157.220,204.961 156.378,203.550 155.552 C 202.140 154.726,200.897 153.960,200.789 153.850 C 200.680 153.739,200.237 153.452,199.803 153.211 C 199.029 152.782,199.012 152.312,198.912 128.458 C 198.800 101.620,198.960 103.153,196.450 104.850 " stroke="none" fill="#1c74bc" fill-rule="evenodd"></path></g></svg>